<?xml version="1.0" standalone="no"?>
<!DOCTYPE svg PUBLIC "-//W3C//DTD SVG 20010904//EN"
 "http://www.w3.org/TR/2001/REC-SVG-20010904/DTD/svg10.dtd">
<svg version="1.0" xmlns="http://www.w3.org/2000/svg"
 width="600.000000pt" height="600.000000pt" viewBox="0 0 600.000000 600.000000"
 preserveAspectRatio="xMidYMid meet">
<g transform="translate(0.000000,600.000000) scale(0.100000,-0.100000)"
fill="#000000" stroke="none">
<path d="M4205 4383 c-50 -26 -175 -121 -257 -194 l-76 -69 -1204 0 -1203 0
-50 -24 c-64 -30 -102 -68 -132 -132 l-23 -51 2 -939 c3 -1050 -2 -970 75
-1047 43 -43 85 -64 155 -77 33 -6 603 -9 1543 -8 l1490 3 52 24 c29 13 70 42
91 65 77 84 73 19 70 1066 -3 1052 3 966 -80 1049 -60 59 -106 71 -272 71
l-141 0 5 127 c6 146 1 160 -45 136z m19 -137 c-2 -90 0 -117 12 -127 9 -8 14
-32 14 -74 0 -35 7 -98 15 -140 8 -43 11 -83 7 -90 -4 -7 -38 -36 -77 -65
-167 -127 -384 -355 -823 -866 -99 -117 -196 -222 -214 -235 -18 -13 -41 -33
-51 -44 -17 -20 -17 -20 -12 0 3 11 -3 3 -13 -18 -11 -21 -25 -44 -33 -50 -11
-10 -10 -9 1 6 11 15 11 20 0 30 -9 9 -11 9 -6 0 9 -16 -33 -85 -47 -76 -7 3
-9 3 -5 -1 4 -5 -8 -24 -25 -43 -50 -56 -58 -63 -68 -63 -6 0 -8 -4 -5 -8 3
-5 -9 -23 -27 -40 -32 -31 -33 -31 -60 -13 -15 9 -24 21 -20 25 5 4 3 6 -3 4
-13 -3 -119 100 -111 109 10 9 28 -8 20 -20 -4 -7 0 -6 10 2 9 7 17 19 17 25
0 6 -4 5 -9 -3 -6 -10 -10 -10 -16 -1 -4 6 -13 9 -21 6 -7 -3 -38 18 -69 47
-30 29 -55 51 -55 49 0 -2 -12 11 -27 30 -16 18 -31 35 -35 36 -5 2 -8 10 -8
17 0 8 -5 17 -12 21 -7 5 -9 2 -4 -7 5 -8 -13 7 -39 34 -25 26 -55 49 -65 50
-11 2 -41 22 -68 44 l-49 42 -374 -331 c-206 -181 -395 -348 -421 -370 l-48
-40 0 882 c0 485 -3 887 -7 894 -4 6 22 -14 58 -45 112 -97 449 -389 597 -518
l144 -125 -34 -29 c-18 -16 -48 -41 -66 -55 -40 -31 -56 -57 -44 -77 13 -24
185 -174 200 -175 6 0 12 5 12 11 0 6 7 8 16 5 9 -3 12 -2 9 5 -4 6 -14 8 -22
5 -17 -7 -53 10 -53 26 0 7 5 6 15 -2 24 -20 18 -5 -7 16 -12 10 -18 13 -14 7
14 -24 -11 -13 -37 17 -15 17 -32 30 -37 30 -6 0 -10 5 -10 11 0 5 6 7 13 3 7
-4 9 -3 4 2 -5 5 -12 9 -15 9 -15 0 -47 31 -47 45 0 16 26 41 36 34 4 -2 13 4
20 14 13 15 12 16 -3 3 -12 -9 -18 -10 -18 -2 0 6 12 17 28 23 32 14 61 47 62
69 0 24 164 159 192 159 25 0 134 -106 327 -317 51 -57 97 -100 102 -97 5 3 6
10 3 16 -4 6 -2 8 4 4 5 -3 25 13 44 36 79 102 589 709 677 806 186 206 300
319 329 325 15 3 40 17 55 31 16 15 33 24 38 21 5 -4 9 1 9 10 0 9 4 13 10 10
6 -3 7 1 4 9 -4 10 -1 16 9 16 9 0 20 8 25 17 6 10 22 16 42 16 24 0 28 3 16
9 -20 11 -11 29 10 21 9 -3 14 0 12 7 -2 7 10 20 27 29 16 9 34 21 40 27 9 11
30 21 46 23 3 1 5 -50 3 -113z m-434 -162 c3 -3 -6 -14 -19 -25 -13 -10 -20
-19 -17 -19 3 0 -27 -33 -67 -74 -39 -40 -103 -109 -142 -152 -38 -43 -83 -92
-100 -109 -59 -60 -114 -132 -107 -140 4 -5 2 -5 -4 -2 -6 3 -17 -4 -25 -15
-8 -12 -22 -28 -31 -37 -10 -8 -18 -18 -18 -22 0 -8 -40 -57 -82 -101 -14 -15
-25 -28 -24 -28 2 0 -14 -19 -35 -41 -21 -23 -36 -47 -32 -53 3 -6 3 -8 -2 -4
-8 8 -70 -57 -70 -73 0 -4 -4 -11 -9 -16 -5 -5 -6 -3 -2 5 4 6 5 12 3 12 -9 0
-72 -96 -69 -105 2 -5 0 -7 -3 -3 -8 8 -45 -34 -45 -50 0 -6 -5 -14 -12 -18
-7 -5 -8 -3 -3 6 5 9 4 11 -3 6 -7 -4 -12 -11 -12 -16 0 -17 -34 -50 -51 -50
-10 0 -23 14 -31 30 -7 17 -18 30 -23 30 -6 0 -27 21 -47 48 -20 26 -50 60
-67 76 -17 16 -28 34 -24 39 3 6 2 8 -3 5 -5 -3 -25 8 -44 24 -19 17 -29 28
-23 24 9 -5 11 -2 7 8 -3 9 -10 13 -15 10 -5 -3 -9 0 -9 6 0 6 -5 8 -10 5 -6
-4 -9 -2 -8 3 3 11 -48 62 -63 62 -6 0 -7 5 -4 10 3 6 -1 10 -9 10 -9 0 -16 5
-16 10 0 16 -47 12 -64 -6 -9 -8 -21 -12 -27 -8 -7 4 -10 3 -7 -2 3 -5 -7 -19
-21 -32 -110 -97 -103 -92 -123 -78 -11 8 -43 36 -72 62 -28 27 -74 67 -101
89 -27 22 -83 72 -124 112 -41 39 -80 69 -85 66 -6 -4 -8 -3 -4 2 8 9 -32 42
-45 37 -5 -1 -6 1 -3 6 3 4 -14 20 -37 35 -22 15 -37 27 -33 27 5 0 -4 10 -20
23 -16 12 -32 21 -37 19 -5 -1 -6 2 -3 7 4 5 0 13 -8 18 -14 8 -103 82 -138
116 -10 9 -23 17 -29 17 -5 0 -7 4 -4 10 4 6 -1 7 -11 3 -12 -5 -15 -3 -9 6 6
10 3 11 -12 2 -11 -6 -23 -8 -26 -5 -11 12 -7 -1742 4 -1775 11 -31 32 -41 44
-21 4 6 10 8 14 6 4 -3 17 5 28 17 11 12 46 45 78 72 32 28 72 63 89 80 16 16
42 39 57 50 55 41 131 105 123 105 -4 0 7 11 25 24 18 14 45 37 59 53 15 16
48 44 74 63 26 19 49 43 52 54 2 10 8 16 13 13 4 -3 17 1 28 9 10 8 15 14 9
14 -5 0 -4 4 3 8 26 16 88 69 121 102 19 19 31 29 27 22 -6 -11 -3 -11 13 -1
12 7 18 17 15 23 -3 5 -1 6 5 2 7 -4 12 -14 12 -22 0 -8 4 -13 9 -10 14 9 34
-21 24 -37 -12 -20 -134 -127 -145 -127 -5 0 -6 -4 -3 -10 3 -5 1 -10 -4 -10
-10 0 -41 -25 -99 -80 -14 -14 -30 -24 -35 -22 -5 1 -6 -2 -2 -8 3 -5 -1 -10
-10 -10 -9 0 -14 -4 -10 -9 3 -5 -4 -12 -15 -16 -11 -4 -18 -11 -15 -16 4 -5
1 -9 -5 -9 -6 0 -24 -12 -40 -27 -16 -16 -43 -39 -59 -53 -17 -14 -48 -41 -69
-60 -21 -19 -57 -51 -82 -70 -24 -19 -60 -51 -81 -70 -20 -19 -60 -56 -88 -83
-54 -50 -56 -54 -41 -77 8 -13 187 -15 1494 -17 1338 -3 1486 -1 1500 13 24
23 21 29 -36 81 -28 27 -62 58 -75 70 -13 12 -23 21 -23 19 0 -2 -19 15 -43
38 -67 64 -106 96 -118 96 -5 0 -8 4 -5 9 3 5 -7 17 -22 26 -15 10 -42 34 -61
54 -19 20 -30 29 -25 21 8 -15 -14 5 -145 129 -35 34 -68 61 -72 61 -4 0 -17
12 -29 28 -12 15 -18 20 -15 12 4 -8 -5 0 -20 18 -14 17 -31 32 -37 32 -6 0
-27 17 -48 38 -21 20 -58 55 -82 77 -40 37 -43 42 -29 55 8 8 18 14 21 14 3
-1 14 4 24 12 17 12 23 9 53 -22 18 -20 33 -32 33 -27 1 4 7 -3 15 -17 8 -14
14 -22 15 -18 0 4 9 0 19 -9 11 -9 18 -20 15 -25 -3 -4 3 -5 12 -1 12 4 15 3
10 -5 -4 -7 -1 -12 8 -12 9 0 16 -4 16 -10 0 -5 18 -23 40 -39 21 -15 36 -31
33 -35 -3 -3 1 -6 10 -6 9 0 17 -5 17 -11 0 -5 5 -7 11 -4 6 4 13 -1 15 -12 3
-10 27 -34 54 -53 26 -19 53 -45 59 -57 6 -13 16 -23 23 -23 7 0 38 -24 69
-53 74 -68 109 -98 139 -119 14 -10 25 -23 25 -30 0 -7 9 -12 19 -10 10 2 15
-1 12 -7 -4 -5 4 -15 16 -22 32 -17 48 -35 40 -45 -4 -5 -3 -6 2 -1 12 9 67
-43 59 -56 -3 -6 -1 -7 4 -4 6 4 23 -5 39 -18 56 -49 54 -48 73 -26 17 19 18
70 18 872 1 487 -3 863 -8 876 -6 16 -5 22 1 18 6 -3 10 -2 10 2 0 5 -9 14
-20 21 -12 7 -18 17 -15 22 3 5 0 12 -6 16 -7 4 -10 3 -6 -2 5 -9 -20 -51 -28
-47 -5 3 -45 -30 -86 -70 -16 -15 -29 -24 -29 -20 0 4 -9 -5 -19 -20 -10 -16
-21 -27 -24 -25 -3 2 -22 -13 -44 -32 -21 -20 -72 -63 -113 -97 -41 -33 -85
-73 -98 -88 -15 -17 -29 -24 -39 -21 -13 6 -14 4 -3 -9 7 -9 9 -15 3 -13 -6 2
-23 -10 -38 -27 -15 -16 -24 -23 -20 -15 3 8 -1 6 -10 -5 -9 -11 -21 -19 -26
-17 -6 1 -8 -2 -5 -7 3 -5 -33 -40 -80 -77 -47 -38 -101 -84 -120 -102 -19
-19 -34 -31 -34 -27 0 4 -13 -7 -29 -24 -16 -17 -32 -31 -37 -31 -4 0 -22 -16
-41 -35 -19 -20 -39 -32 -45 -29 -7 5 -9 1 -5 -9 3 -10 2 -17 -4 -17 -5 0 -22
-13 -38 -29 -15 -16 -38 -34 -50 -40 -12 -7 -20 -15 -17 -19 2 -4 -7 -8 -21
-9 l-25 -1 21 21 c23 24 51 56 114 131 23 27 52 59 64 71 12 13 20 25 17 28
-2 2 3 10 13 18 15 12 16 12 8 -1 -4 -8 1 -6 12 5 11 11 19 22 17 24 -1 2 8
13 22 26 13 12 24 26 24 31 0 11 62 69 83 77 8 3 17 16 19 29 2 13 9 22 16 21
6 -2 12 0 12 5 0 4 14 22 30 40 17 18 30 30 30 26 0 -4 13 11 29 33 16 22 44
51 63 64 18 13 38 30 45 39 6 8 16 15 22 15 6 0 26 17 44 37 18 20 39 38 47
40 8 2 25 13 38 26 13 12 27 20 32 17 5 -3 7 4 5 15 -2 11 0 20 5 20 9 0 5 74
-5 90 -11 18 -17 178 -7 184 15 9 242 13 236 4 -2 -3 8 -5 23 -4 16 2 35 -5
47 -15 11 -11 25 -19 30 -19 18 -1 66 -72 67 -99 0 -22 1 -23 8 -7 7 18 8 18
14 2 4 -9 7 -443 7 -963 l0 -945 -22 -31 c-13 -18 -16 -27 -7 -23 7 5 -2 -5
-21 -20 -19 -16 -43 -38 -54 -48 -42 -42 -71 -43 -1631 -42 l-1490 1 -55 26
c-68 32 -97 60 -121 113 -18 39 -19 84 -19 982 0 924 1 942 20 967 11 14 20
28 20 32 0 5 14 21 30 37 17 15 30 26 30 23 0 -3 12 3 27 12 25 17 79 18 743
23 788 6 1621 2 1630 -6z m809 -1099 c0 -778 -3 -921 -21 -877 -2 7 -543 487
-851 756 l-67 59 -54 -52 -55 -51 26 -20 c14 -10 59 -50 101 -88 123 -111 362
-323 595 -527 l216 -190 -744 -3 c-410 -1 -1080 -1 -1490 0 l-744 3 182 160
c471 415 614 542 636 565 l25 25 227 -227 c176 -177 232 -228 252 -228 20 0
53 31 159 152 130 148 297 301 818 748 344 296 765 664 768 672 2 4 7 8 12 8
4 0 8 -398 9 -885z m-1150 -66 c-11 -11 -23 -18 -27 -15 -3 4 3 13 14 21 28
22 37 18 13 -6z m-34 -40 c-10 -15 -25 -10 -19 6 4 8 10 12 15 9 5 -3 7 -10 4
-15z"/>
<path d="M4137 4304 c-3 -5 1 -15 9 -22 16 -14 18 -5 5 17 -5 7 -11 9 -14 5z"/>
<path d="M3896 4101 c-4 -5 -2 -12 3 -15 5 -4 12 -2 15 3 4 5 2 12 -3 15 -5 4
-12 2 -15 -3z"/>
<path d="M4173 3820 c13 -8 15 -15 8 -24 -7 -8 -5 -12 9 -12 17 0 18 3 6 20
-7 11 -19 22 -27 24 -8 2 -6 -2 4 -8z"/>
<path d="M4089 3717 c6 -8 7 -18 3 -22 -4 -5 -1 -5 6 -1 10 6 10 11 1 22 -6 8
-14 14 -16 14 -3 0 0 -6 6 -13z"/>
<path d="M3384 3548 c0 -10 1 -18 3 -18 1 0 7 8 12 18 7 13 6 19 -2 19 -7 0
-13 -9 -13 -19z"/>
<path d="M1690 3541 c0 -6 4 -13 10 -16 6 -3 7 1 4 9 -7 18 -14 21 -14 7z"/>
<path d="M3406 3532 c-3 -5 1 -9 9 -9 8 0 12 4 9 9 -3 4 -7 8 -9 8 -2 0 -6 -4
-9 -8z"/>
<path d="M3260 3415 c0 -5 5 -17 10 -25 5 -8 10 -10 10 -5 0 6 -5 17 -10 25
-5 8 -10 11 -10 5z"/>
<path d="M3704 3318 l-29 -33 33 29 c30 28 37 36 29 36 -2 0 -16 -15 -33 -32z"/>
<path d="M1926 3317 c3 -10 9 -15 12 -12 3 3 0 11 -7 18 -10 9 -11 8 -5 -6z"/>
<path d="M3640 3262 c0 -5 7 -9 15 -9 8 0 12 4 9 9 -3 4 -9 8 -15 8 -5 0 -9
-4 -9 -8z"/>
<path d="M2301 3243 c3 -19 -2 -34 -10 -28 -5 3 -12 1 -15 -4 -4 -5 1 -8 10
-7 21 3 38 32 24 41 -6 4 -10 3 -9 -2z"/>
<path d="M3606 3237 c3 -10 9 -15 12 -12 3 3 0 11 -7 18 -10 9 -11 8 -5 -6z"/>
<path d="M2201 3146 c-9 -11 -9 -16 0 -22 7 -4 9 -3 5 4 -3 6 2 15 11 21 10 6
13 11 7 11 -6 0 -17 -6 -23 -14z"/>
<path d="M3447 3105 c3 -8 9 -12 14 -9 12 7 11 11 -5 17 -10 4 -13 1 -9 -8z"/>
<path d="M2600 3106 c0 -2 8 -10 18 -17 15 -13 16 -12 3 4 -13 16 -21 21 -21
13z"/>
<path d="M2567 3056 c-4 -10 -1 -13 8 -9 8 3 12 9 9 14 -7 12 -11 11 -17 -5z"/>
<path d="M2855 2922 c-12 -17 -13 -22 -4 -15 9 7 18 11 20 8 3 -2 5 5 6 15 2
25 2 25 -22 -8z"/>
<path d="M2729 2913 c-13 -16 -12 -17 4 -4 16 13 21 21 13 21 -2 0 -10 -8 -17
-17z"/>
<path d="M2744 2894 c-18 -14 -18 -15 4 -4 12 6 22 13 22 15 0 8 -5 6 -26 -11z"/>
<path d="M2817 2889 c7 -7 15 -10 18 -7 3 3 -2 9 -12 12 -14 6 -15 5 -6 -5z"/>
<path d="M2376 2788 c3 -5 10 -6 15 -3 13 9 11 12 -6 12 -8 0 -12 -4 -9 -9z"/>
<path d="M3206 2782 c-2 -4 -1 -14 4 -22 7 -11 9 -9 7 8 -1 24 -3 26 -11 14z"/>
<path d="M3143 2705 c0 -8 4 -12 9 -9 5 3 6 10 3 15 -9 13 -12 11 -12 -6z"/>
<path d="M2456 2702 c-3 -5 1 -9 9 -9 8 0 12 4 9 9 -3 4 -7 8 -9 8 -2 0 -6 -4
-9 -8z"/>
<path d="M3127 2679 c7 -7 15 -10 18 -7 3 3 -2 9 -12 12 -14 6 -15 5 -6 -5z"/>
<path d="M2524 2632 c-8 -5 -3 -14 15 -26 26 -20 26 -20 8 0 -9 12 -14 24 -10
27 8 9 1 9 -13 -1z"/>
<path d="M2590 2557 c0 -4 9 -16 20 -27 11 -11 20 -16 20 -12 0 5 -9 17 -20
27 -11 10 -20 15 -20 12z"/>
<path d="M3689 3983 c-13 -16 -12 -17 4 -4 16 13 21 21 13 21 -2 0 -10 -8 -17
-17z"/>
<path d="M4005 3549 c-4 -6 -5 -12 -2 -15 2 -3 7 2 10 11 7 17 1 20 -8 4z"/>
<path d="M1573 2165 c0 -8 4 -12 9 -9 5 3 6 10 3 15 -9 13 -12 11 -12 -6z"/>
<path d="M3565 2753 c3 -3 0 -11 -5 -18 -7 -8 -5 -12 4 -12 14 0 16 22 3 32
-4 3 -5 2 -2 -2z"/>
<path d="M4389 2388 c-6 -20 -6 -39 0 -42 4 -3 7 6 7 20 0 20 -4 32 -7 22z"/>
<path d="M1795 2200 c-3 -6 1 -7 9 -4 18 7 21 14 7 14 -6 0 -13 -4 -16 -10z"/>
</g>
</svg>
